<svg xmlns="http://www.w3.org/2000/svg" xmlns:xlink="http://www.w3.org/1999/xlink" viewBox="0 0 450.9 88.35"><defs><style>.cls-1{fill:url(#linear-gradient);}.cls-2{fill:#fff;}.cls-3{fill:#231f20;}</style><linearGradient id="linear-gradient" x1="117.21" y1="383.16" x2="187.32" y2="432.41" gradientUnits="userSpaceOnUse"><stop offset="0" stop-color="#f1be1a"/><stop offset="0.91" stop-color="#f6851f"/></linearGradient></defs><g id="Layer_1" data-name="Layer 1"><path class="cls-1" d="M195,397.66A42.85,42.85,0,0,1,130,434.28l-16.62,7.44a1.94,1.94,0,0,1-2.57-2.54l6.76-16.35A42.84,42.84,0,1,1,195,397.66Z" transform="translate(-63.45 -354.06)"/><path d="M200.51,441.89c-4.24,0-6.53-3.32-5-7.54a10,10,0,0,1,2.62-3.89A23.66,23.66,0,0,0,205.82,417c.49-2.53.72-5.11,1.08-7.67.54-3.8,1.66-7.38,4.38-10.27.82-.87.82-1.45,0-2.37a18.35,18.35,0,0,1-4.35-9.8c-.54-3.38-.94-6.8-1.66-10.14a20,20,0,0,0-6.7-10.89,8.77,8.77,0,0,1-3.43-6.58c0-3.38,2.33-5.45,5.74-5.21a11.27,11.27,0,0,1,6.8,3.34,34,34,0,0,1,11,20.4c.42,2.67.72,5.35,1.15,8,.5,3.14,2.62,4.81,5.58,5.54,1.92.47,3.84.91,5.2,2.43,2.9,3.27,2,7.63-2,9.66a8.94,8.94,0,0,1-2.52.9c-3.75.59-6.14,3.43-6.46,7.65-.63,8.21-2.78,16-8.13,22.51a46.67,46.67,0,0,1-5.94,5.73A7,7,0,0,1,200.51,441.89Z" transform="translate(-63.45 -354.06)"/><path d="M101.09,442.41a7,7,0,0,1-5.8-2.89C89.17,432,83.08,424.43,77,416.89c-3.69-4.54-7.35-9.12-11.14-13.57-3.41-4-3-7.54.33-11.47,6.21-7.41,12.33-14.89,18.49-22.34,3.42-4.14,6.81-8.33,10.27-12.44,2.5-3,5.84-3.62,8.89-1.88a6.66,6.66,0,0,1,2.25,9.4c-1.57,2.36-3.45,4.52-5.24,6.73q-5.23,6.45-10.52,12.84c-3.53,4.27-7.07,8.52-10.67,12.74a1.37,1.37,0,0,0,0,2.13q7.62,9.23,15.19,18.52c3.72,4.57,7.46,9.12,11.06,13.79a6.91,6.91,0,0,1-3.56,10.93A6.39,6.39,0,0,1,101.09,442.41Z" transform="translate(-63.45 -354.06)"/><path class="cls-2" d="M173.67,378.54l4.61-3.81c.29,1.49,3.28,22,3.64,24.16l-22.28-8.3,4.53-4.11a17,17,0,0,0-10.43-4.84c-8-.56-14,3.81-16.93,10.3-3.73,8.27.76,19.14,9.35,22.23,6.29,2.25,12.26,1.59,17.53-2.86,1.82-1.53,2.46-1.61,4.43-.26,1.8,1.23,3.54,2.56,5.26,3.9s1.71,2,.35,3.82a22.1,22.1,0,0,1-8,6.22,29.57,29.57,0,0,1-20.22,2.16c-6.64-1.47-11.88-5.15-16.19-10.34a29.43,29.43,0,0,1-3.49-32.52A28,28,0,0,1,143.75,370c10.21-2.85,20.15-1.58,27.55,5.84C172.23,376.73,172.81,377.53,173.67,378.54Z" transform="translate(-63.45 -354.06)"/></g><g id="Layer_2" data-name="Layer 2"><path class="cls-3" d="M251,400.24h-7.63V379.08l1.53-.3a11.21,11.21,0,0,1,2-.18,5.14,5.14,0,0,1,3.13.75,3.4,3.4,0,0,1,1,2.8Zm-7.63-8.54H251v23.44l-3.55.48a4,4,0,0,1-3-1.11,3.94,3.94,0,0,1-1.11-2.91Zm4.08,23.92v-6.25h19.11a4.92,4.92,0,0,1,.64,1.26,5.4,5.4,0,0,1,.27,1.75,3.47,3.47,0,0,1-.76,2.43,2.61,2.61,0,0,1-2,.81Z" transform="translate(-63.45 -354.06)"/><path class="cls-3" d="M275.7,405.11l-.3-5.17,16.1-2.41a6.4,6.4,0,0,0-1.74-4,5.93,5.93,0,0,0-4.57-1.69,6.78,6.78,0,0,0-5.1,2.14,8.63,8.63,0,0,0-2.11,6.1l.18,3.12a8,8,0,0,0,3,5.65,10.07,10.07,0,0,0,6.16,1.8,14.28,14.28,0,0,0,4.69-.75,13.64,13.64,0,0,0,3.42-1.65,4.35,4.35,0,0,1,1.35,1.35,3.29,3.29,0,0,1,.51,1.78,3.33,3.33,0,0,1-1.38,2.67,9.74,9.74,0,0,1-3.72,1.71,21.71,21.71,0,0,1-5.35.6,18.83,18.83,0,0,1-8.21-1.71,12.74,12.74,0,0,1-5.59-5.14,18.93,18.93,0,0,1-.87-15,13.05,13.05,0,0,1,3.1-4.6,12.92,12.92,0,0,1,4.54-2.76,15.57,15.57,0,0,1,5.4-.94,14.55,14.55,0,0,1,6.95,1.6,12,12,0,0,1,4.68,4.41,12.22,12.22,0,0,1,1.72,6.49,3.22,3.22,0,0,1-.88,2.5,4.16,4.16,0,0,1-2.43,1Z" transform="translate(-63.45 -354.06)"/><path class="cls-3" d="M307.73,405.11l-.3-5.17,16.11-2.41a6.42,6.42,0,0,0-1.75-4,5.92,5.92,0,0,0-4.56-1.69,6.78,6.78,0,0,0-5.11,2.14,8.63,8.63,0,0,0-2.11,6.1l.18,3.12a8.08,8.08,0,0,0,3,5.65,10.07,10.07,0,0,0,6.16,1.8,14.24,14.24,0,0,0,4.69-.75,13.64,13.64,0,0,0,3.42-1.65,4.35,4.35,0,0,1,1.35,1.35,3.3,3.3,0,0,1,.52,1.78,3.34,3.34,0,0,1-1.39,2.67,9.74,9.74,0,0,1-3.72,1.71,21.71,21.71,0,0,1-5.35.6,18.75,18.75,0,0,1-8.2-1.71,12.64,12.64,0,0,1-5.59-5.14,16.52,16.52,0,0,1-2-8.53,16.78,16.78,0,0,1,1.14-6.43,13.19,13.19,0,0,1,3.1-4.6,12.92,12.92,0,0,1,4.54-2.76,15.59,15.59,0,0,1,5.41-.94,14.54,14.54,0,0,1,6.94,1.6,12.07,12.07,0,0,1,4.69,4.41,12.31,12.31,0,0,1,1.71,6.49,3.26,3.26,0,0,1-.87,2.5,4.19,4.19,0,0,1-2.44,1Z" transform="translate(-63.45 -354.06)"/><path class="cls-3" d="M344,401.32h-7.39V379.68a9.31,9.31,0,0,1,1.41-.36,10.25,10.25,0,0,1,1.95-.18,5,5,0,0,1,3.07.75,3.24,3.24,0,0,1,1,2.68Zm-7.39-1.62H344v7.09a3.23,3.23,0,0,0,1.17,2.82,5.66,5.66,0,0,0,3.34.84,9.83,9.83,0,0,0,2.07-.24,9.16,9.16,0,0,0,1.89-.6,6.32,6.32,0,0,1,.78,1.14,3.49,3.49,0,0,1-1.29,4.51,9.16,9.16,0,0,1-5.14,1.14,11.88,11.88,0,0,1-7.48-2.13c-1.82-1.42-2.73-3.74-2.73-6.94Zm4.5-6.13v-5.83h11.78a8.26,8.26,0,0,1,.52,1.2,4.92,4.92,0,0,1,.27,1.62,3.09,3.09,0,0,1-.73,2.25,2.44,2.44,0,0,1-1.86.76Z" transform="translate(-63.45 -354.06)"/><path class="cls-3" d="M388,383.71a3.34,3.34,0,0,1-.63,2,4.73,4.73,0,0,1-1.47,1.36,20.35,20.35,0,0,0-3.49-1.87,12.47,12.47,0,0,0-4.87-.84,11.69,11.69,0,0,0-5.92,1.47,9.92,9.92,0,0,0-4,4.39,16.25,16.25,0,0,0-1.41,7.12q0,6.38,3.18,9.65a11.28,11.28,0,0,0,8.47,3.27,13.63,13.63,0,0,0,4.87-.78,17.31,17.31,0,0,0,3.55-1.8,4.17,4.17,0,0,1,1.35,1.41,3.89,3.89,0,0,1,.57,2.08,3.51,3.51,0,0,1-.51,1.86,4.36,4.36,0,0,1-1.77,1.5,15.32,15.32,0,0,1-3.46,1.32,23.42,23.42,0,0,1-14.9-1.47,15.49,15.49,0,0,1-6.7-6.31,21,21,0,0,1-2.47-10.73,20.77,20.77,0,0,1,2.47-10.57,16.38,16.38,0,0,1,6.61-6.47,19.11,19.11,0,0,1,9.07-2.19,20.74,20.74,0,0,1,6,.78,10.41,10.41,0,0,1,4,2.05A3.67,3.67,0,0,1,388,383.71Z" transform="translate(-63.45 -354.06)"/><path class="cls-3" d="M421.2,401.32a16.89,16.89,0,0,1-1.81,8,12.56,12.56,0,0,1-5.08,5.23,15.55,15.55,0,0,1-7.72,1.83,15.75,15.75,0,0,1-7.75-1.83,12.75,12.75,0,0,1-5.14-5.2,16.62,16.62,0,0,1-1.83-8.05,16.24,16.24,0,0,1,1.86-8,12.94,12.94,0,0,1,5.17-5.2,15.62,15.62,0,0,1,7.69-1.84,15.22,15.22,0,0,1,7.66,1.87,13,13,0,0,1,5.11,5.23A16.33,16.33,0,0,1,421.2,401.32Zm-14.67-9.14a6.21,6.21,0,0,0-5.14,2.41,10.63,10.63,0,0,0-1.89,6.73c0,3,.62,5.24,1.86,6.82a6.28,6.28,0,0,0,5.23,2.37,6.18,6.18,0,0,0,5.17-2.4,13.16,13.16,0,0,0,0-13.49A6.22,6.22,0,0,0,406.53,392.18Z" transform="translate(-63.45 -354.06)"/><path class="cls-3" d="M438.5,386.29c3.93,0,7.05.84,9.38,2.5s3.48,4.28,3.48,7.84v13.82a3.5,3.5,0,0,1-.69,2.29,7,7,0,0,1-1.77,1.5,16.63,16.63,0,0,1-4.27,1.59,24.62,24.62,0,0,1-5.83.63c-4,0-7.15-.77-9.43-2.31a7.75,7.75,0,0,1-3.43-6.88,7.54,7.54,0,0,1,2.56-6.16q2.55-2.13,7.42-2.62l8.17-.84v-1.08a3.85,3.85,0,0,0-1.65-3.48,8.41,8.41,0,0,0-4.66-1.09,17.53,17.53,0,0,0-4.57.6,23.63,23.63,0,0,0-4,1.45,4.56,4.56,0,0,1-1.08-1.32,3.44,3.44,0,0,1-.49-1.75,3.37,3.37,0,0,1,2.41-3.18,15.26,15.26,0,0,1,3.94-1.15A28.25,28.25,0,0,1,438.5,386.29Zm.3,24.52a13.47,13.47,0,0,0,3.25-.36,7.5,7.5,0,0,0,2.1-.78v-6.85l-5.95.6a7.75,7.75,0,0,0-3.75,1.05,2.89,2.89,0,0,0-1.3,2.56,3.24,3.24,0,0,0,1.39,2.76A7.19,7.19,0,0,0,438.8,410.81Z" transform="translate(-63.45 -354.06)"/><path class="cls-3" d="M473.54,392.24a8.39,8.39,0,0,0-6,2.35q-2.43,2.34-2.43,6.85c0,3,.78,5.21,2.34,6.73a8.34,8.34,0,0,0,6.07,2.28,10.9,10.9,0,0,0,3.76-.57,17.62,17.62,0,0,0,2.67-1.23,4.41,4.41,0,0,1,1.41,1.29,3.21,3.21,0,0,1,.51,1.84q0,2-2.46,3.33a14,14,0,0,1-6.49,1.29,18.38,18.38,0,0,1-8-1.65,12.15,12.15,0,0,1-5.41-5,16.17,16.17,0,0,1-2-8.29,15.8,15.8,0,0,1,2.08-8.47,12.87,12.87,0,0,1,5.53-5,17.38,17.38,0,0,1,7.6-1.66,12.75,12.75,0,0,1,6.37,1.39q2.4,1.38,2.4,3.42a3.21,3.21,0,0,1-.48,1.69,4.35,4.35,0,0,1-1.14,1.26,15.33,15.33,0,0,0-2.7-1.26A10.5,10.5,0,0,0,473.54,392.24Z" transform="translate(-63.45 -354.06)"/><path class="cls-3" d="M495.47,403.48h-7.39v-27q.48-.12,1.38-.3a10.29,10.29,0,0,1,2-.18,5,5,0,0,1,3.06.75,3.21,3.21,0,0,1,1,2.67Zm-7.39-3.78h7.39v15.74a7.79,7.79,0,0,1-1.38.33,12.08,12.08,0,0,1-2,.15,5.06,5.06,0,0,1-3-.75,3.16,3.16,0,0,1-1-2.67Zm26.27,3.72H507V398a5.48,5.48,0,0,0-1.65-4.44,6.29,6.29,0,0,0-4.18-1.39,8.93,8.93,0,0,0-3.75.79,13.87,13.87,0,0,0-3,1.8l-.42-6a21.4,21.4,0,0,1,3.55-1.65,13.55,13.55,0,0,1,4.87-.82,12.84,12.84,0,0,1,8.68,2.83c2.18,1.88,3.28,4.73,3.28,8.53Zm-7.4-3.66h7.4v15.68a8.17,8.17,0,0,1-1.42.33,12.24,12.24,0,0,1-1.95.15,5,5,0,0,1-3.06-.75,3.18,3.18,0,0,1-1-2.67Z" transform="translate(-63.45 -354.06)"/></g></svg>