<?xml version="1.0" encoding="utf-8"?>
<!-- Generator: Adobe Illustrator 24.3.0, SVG Export Plug-In . SVG Version: 6.00 Build 0)  -->
<svg version="1.1" xmlns="http://www.w3.org/2000/svg" xmlns:xlink="http://www.w3.org/1999/xlink" x="0px" y="0px"
	 viewBox="0 0 595.28 841.89" style="enable-background:new 0 0 595.28 841.89;" xml:space="preserve">
<style type="text/css">
	.st0{fill:url(#SVGID_1_);}
	.st1{fill:#FFFFFF;}
	.st2{display:none;}
	.st3{display:inline;}
</style>
<g id="Layer_1">
	<linearGradient id="SVGID_1_" gradientUnits="userSpaceOnUse" x1="228.7727" y1="387.0895" x2="386.1781" y2="497.6638">
		<stop  offset="0" style="stop-color:#F1BE1A"/>
		<stop  offset="0.9095" style="stop-color:#F6851F"/>
	</linearGradient>
	<path class="st0" d="M403.51,419.66c0,53.13-43.07,96.17-96.17,96.17c-18.29,0-35.39-5.1-49.95-13.97l-37.31,16.72
		c-3.58,1.61-7.26-2.04-5.76-5.72l15.18-36.71c-11.53-15.84-18.33-35.39-18.33-56.49c0-53.1,43.05-96.17,96.17-96.17
		C360.44,323.48,403.51,366.55,403.51,419.66z"/>
	<g>
		<path d="M415.79,518.95c-9.52,0-14.66-7.44-11.2-16.92c1.17-3.21,3.32-6.43,5.87-8.73c9.18-8.25,14.96-18.26,17.26-30.2
			c1.1-5.68,1.61-11.48,2.43-17.22c1.21-8.54,3.72-16.57,9.81-23.05c1.85-1.97,1.85-3.27-0.05-5.34c-5.71-6.21-8.45-13.83-9.76-22
			c-1.22-7.59-2.11-15.25-3.73-22.76c-2.11-9.78-7.48-17.8-15.04-24.45c-4.46-3.92-7.64-8.62-7.7-14.78
			c-0.08-7.58,5.23-12.24,12.89-11.69c6.19,0.44,10.97,3.62,15.26,7.51c13.69,12.38,21.95,27.7,24.81,45.8
			c0.94,5.98,1.62,12.01,2.58,17.99c1.14,7.05,5.88,10.81,12.53,12.44c4.31,1.06,8.62,2.04,11.67,5.47
			c6.52,7.33,4.43,17.11-4.6,21.68c-1.78,0.9-3.71,1.71-5.66,2.02c-8.41,1.33-13.77,7.7-14.5,17.18
			c-1.41,18.42-6.23,35.85-18.25,50.52c-3.89,4.74-8.64,8.87-13.33,12.88C423.97,517.95,420.03,519.17,415.79,518.95z"/>
	</g>
	<g>
		<path d="M192.58,520.12c-5.89,0.03-9.83-2.54-13.03-6.48c-13.73-16.93-27.41-33.89-41.15-50.81c-8.29-10.2-16.5-20.48-25.03-30.47
			c-7.64-8.96-6.68-16.92,0.74-25.75c13.95-16.62,27.7-33.42,41.52-50.15c7.69-9.31,15.28-18.69,23.06-27.92
			c5.62-6.67,13.12-8.14,19.96-4.22c7.27,4.16,9.85,13.93,5.06,21.1c-3.54,5.3-7.75,10.15-11.78,15.11
			c-7.83,9.65-15.7,19.26-23.62,28.83c-7.92,9.58-15.87,19.13-23.94,28.59c-1.54,1.8-1.66,2.95-0.13,4.8
			c11.43,13.81,22.79,27.67,34.11,41.57c8.35,10.26,16.76,20.48,24.83,30.96c6.86,8.9,2.5,21.82-7.99,24.53
			C194.15,520.07,193.05,520.07,192.58,520.12z"/>
	</g>
	<g>
		<path class="st1" d="M355.53,376.72c3.42-2.79,7.74-6.42,10.34-8.54c0.66,3.34,7.38,49.41,8.19,54.23
			c-16.52-6.15-32.91-12.26-50.04-18.64c3.67-3.32,6.81-6.16,10.18-9.22c-6.9-6.26-14.42-10.23-23.43-10.86
			c-17.89-1.26-31.43,8.55-38,23.11c-8.38,18.58,1.71,42.98,20.99,49.9c14.11,5.07,27.52,3.58,39.36-6.41
			c4.08-3.44,5.52-3.61,9.93-0.59c4.04,2.77,7.95,5.75,11.81,8.76c3.66,2.85,3.83,4.53,0.78,8.57
			c-4.71,6.23-11.03,10.51-17.89,13.96c-14.49,7.28-29.75,8.32-45.39,4.86c-14.91-3.3-26.68-11.57-36.35-23.22
			c-6.16-7.43-10.63-15.76-13.04-24.98c-4.33-16.56-2.97-32.71,5.19-48.02c8.79-16.48,22.18-27.17,40.17-32.2
			c22.92-6.4,45.25-3.55,61.85,13.11C352.31,372.66,353.61,374.45,355.53,376.72z"/>
	</g>
</g>
<g id="Layer_2" class="st2">
	<g class="st3">
		<g>
			<path d="M250.19,400.24h-7.63v-21.15c0.36-0.08,0.87-0.18,1.53-0.3c0.66-0.12,1.33-0.18,2.01-0.18c1.44,0,2.48,0.25,3.12,0.75
				c0.64,0.5,0.96,1.43,0.96,2.79V400.24z M242.55,391.7h7.63v23.44l-3.55,0.48c-1.24,0-2.23-0.37-2.98-1.11
				c-0.74-0.74-1.11-1.71-1.11-2.91V391.7z M246.64,415.62v-6.25h19.11c0.24,0.32,0.45,0.74,0.63,1.26c0.18,0.52,0.27,1.1,0.27,1.74
				c0,1.08-0.25,1.89-0.75,2.43c-0.5,0.54-1.17,0.81-2.01,0.81H246.64z"/>
			<path d="M275.49,405.11l-0.3-5.17l16.11-2.4c-0.12-1.52-0.7-2.84-1.74-3.97c-1.04-1.12-2.56-1.68-4.57-1.68
				c-2.04,0-3.75,0.71-5.11,2.13c-1.36,1.42-2.06,3.46-2.1,6.1l0.18,3.12c0.36,2.56,1.35,4.45,2.98,5.65c1.62,1.2,3.68,1.8,6.16,1.8
				c1.68,0,3.25-0.25,4.69-0.75c1.44-0.5,2.58-1.05,3.43-1.65c0.56,0.36,1.01,0.81,1.35,1.35c0.34,0.54,0.51,1.13,0.51,1.77
				c0,1.04-0.46,1.93-1.38,2.67c-0.92,0.74-2.16,1.31-3.73,1.71c-1.56,0.4-3.35,0.6-5.35,0.6c-3.09,0-5.82-0.57-8.2-1.71
				c-2.38-1.14-4.25-2.85-5.59-5.14c-1.34-2.28-2.01-5.13-2.01-8.53c0-2.44,0.38-4.59,1.14-6.43c0.76-1.84,1.79-3.38,3.1-4.6
				c1.3-1.22,2.81-2.14,4.54-2.76c1.72-0.62,3.53-0.93,5.41-0.93c2.64,0,4.96,0.53,6.94,1.59c1.98,1.06,3.55,2.53,4.69,4.42
				c1.14,1.88,1.71,4.05,1.71,6.49c0,1.12-0.29,1.95-0.87,2.49c-0.58,0.54-1.39,0.87-2.43,0.99L275.49,405.11z"/>
			<path d="M307.52,405.11l-0.3-5.17l16.11-2.4c-0.12-1.52-0.7-2.84-1.74-3.97c-1.04-1.12-2.56-1.68-4.57-1.68
				c-2.04,0-3.75,0.71-5.11,2.13c-1.36,1.42-2.06,3.46-2.1,6.1l0.18,3.12c0.36,2.56,1.35,4.45,2.98,5.65c1.62,1.2,3.67,1.8,6.16,1.8
				c1.68,0,3.25-0.25,4.69-0.75c1.44-0.5,2.58-1.05,3.43-1.65c0.56,0.36,1.01,0.81,1.35,1.35c0.34,0.54,0.51,1.13,0.51,1.77
				c0,1.04-0.46,1.93-1.38,2.67c-0.92,0.74-2.16,1.31-3.73,1.71c-1.56,0.4-3.35,0.6-5.35,0.6c-3.09,0-5.82-0.57-8.2-1.71
				c-2.38-1.14-4.25-2.85-5.59-5.14c-1.34-2.28-2.01-5.13-2.01-8.53c0-2.44,0.38-4.59,1.14-6.43c0.76-1.84,1.79-3.38,3.1-4.6
				c1.3-1.22,2.81-2.14,4.54-2.76c1.72-0.62,3.53-0.93,5.41-0.93c2.64,0,4.96,0.53,6.94,1.59c1.98,1.06,3.55,2.53,4.69,4.42
				c1.14,1.88,1.71,4.05,1.71,6.49c0,1.12-0.29,1.95-0.87,2.49s-1.39,0.87-2.43,0.99L307.52,405.11z"/>
			<path d="M343.76,401.32h-7.39v-21.64c0.32-0.12,0.79-0.24,1.41-0.36c0.62-0.12,1.27-0.18,1.95-0.18c1.4,0,2.42,0.25,3.07,0.75
				c0.64,0.5,0.96,1.39,0.96,2.67V401.32z M336.37,399.7h7.39v7.09c0,1.32,0.39,2.26,1.17,2.82c0.78,0.56,1.89,0.84,3.34,0.84
				c0.64,0,1.33-0.08,2.07-0.24c0.74-0.16,1.37-0.36,1.89-0.6c0.28,0.32,0.54,0.7,0.78,1.14c0.24,0.44,0.36,0.98,0.36,1.62
				c0,1.16-0.55,2.12-1.65,2.88c-1.1,0.76-2.81,1.14-5.14,1.14c-3.16,0-5.66-0.71-7.48-2.13c-1.82-1.42-2.73-3.74-2.73-6.94V399.7z
				 M340.87,393.57v-5.83h11.78c0.16,0.28,0.33,0.68,0.51,1.2c0.18,0.52,0.27,1.06,0.27,1.62c0,1-0.24,1.75-0.72,2.25
				c-0.48,0.5-1.1,0.75-1.86,0.75H340.87z"/>
			<path d="M387.81,383.71c0,0.76-0.21,1.43-0.63,2.01c-0.42,0.58-0.91,1.03-1.47,1.35c-1-0.68-2.16-1.3-3.49-1.86
				c-1.32-0.56-2.94-0.84-4.87-0.84c-2.24,0-4.22,0.49-5.92,1.47c-1.7,0.98-3.03,2.44-3.97,4.39c-0.94,1.94-1.41,4.32-1.41,7.12
				c0,4.25,1.06,7.46,3.18,9.65c2.12,2.18,4.95,3.28,8.47,3.28c1.88,0,3.5-0.26,4.87-0.78c1.36-0.52,2.54-1.12,3.54-1.8
				c0.52,0.32,0.97,0.79,1.35,1.41c0.38,0.62,0.57,1.31,0.57,2.07c0,0.68-0.17,1.3-0.51,1.86c-0.34,0.56-0.93,1.06-1.77,1.5
				c-0.84,0.48-1.99,0.92-3.46,1.32c-1.46,0.4-3.3,0.6-5.5,0.6c-3.45,0-6.58-0.69-9.41-2.07c-2.82-1.38-5.06-3.49-6.7-6.31
				c-1.64-2.82-2.46-6.4-2.46-10.73c0-4.21,0.82-7.73,2.46-10.58c1.64-2.84,3.85-5,6.61-6.46c2.76-1.46,5.79-2.19,9.08-2.19
				c2.32,0,4.34,0.26,6.04,0.78c1.7,0.52,3.02,1.2,3.97,2.04C387.34,381.79,387.81,382.71,387.81,383.71z"/>
			<path d="M422.13,401.32c0,3.09-0.6,5.76-1.8,8.02c-1.2,2.26-2.9,4.01-5.08,5.23s-4.76,1.83-7.72,1.83s-5.55-0.61-7.75-1.83
				s-3.92-2.95-5.14-5.2c-1.22-2.24-1.83-4.93-1.83-8.05c0-3.08,0.62-5.75,1.86-7.99c1.24-2.24,2.96-3.98,5.17-5.2
				c2.2-1.22,4.77-1.83,7.69-1.83s5.48,0.62,7.66,1.86c2.18,1.24,3.89,2.99,5.11,5.23C421.51,395.63,422.13,398.27,422.13,401.32z
				 M407.46,392.18c-2.16,0-3.88,0.8-5.14,2.4c-1.26,1.6-1.89,3.85-1.89,6.73c0,2.97,0.62,5.24,1.86,6.82
				c1.24,1.58,2.98,2.37,5.23,2.37c2.2,0,3.93-0.8,5.17-2.4c1.24-1.6,1.86-3.87,1.86-6.79c0-2.84-0.62-5.08-1.86-6.7
				C411.45,393,409.71,392.18,407.46,392.18z"/>
			<path d="M439.31,386.29c3.93,0,7.05,0.83,9.38,2.49c2.32,1.66,3.49,4.28,3.49,7.84v13.82c0,0.96-0.23,1.72-0.69,2.28
				c-0.46,0.56-1.05,1.06-1.77,1.5c-1.12,0.64-2.54,1.17-4.27,1.59c-1.72,0.42-3.67,0.63-5.83,0.63c-4.01,0-7.15-0.77-9.44-2.31
				c-2.28-1.54-3.43-3.84-3.43-6.88c0-2.68,0.85-4.74,2.55-6.16c1.7-1.42,4.18-2.29,7.42-2.61l8.17-0.84v-1.08
				c0-1.6-0.55-2.76-1.65-3.49c-1.1-0.72-2.66-1.08-4.66-1.08c-1.56,0-3.09,0.2-4.57,0.6c-1.48,0.4-2.8,0.88-3.97,1.44
				c-0.4-0.32-0.76-0.76-1.08-1.32c-0.32-0.56-0.48-1.14-0.48-1.74c0-1.44,0.8-2.5,2.4-3.19c1.12-0.52,2.43-0.9,3.94-1.14
				C436.34,386.41,437.83,386.29,439.31,386.29z M439.61,410.81c1.2,0,2.28-0.12,3.25-0.36c0.96-0.24,1.66-0.5,2.1-0.78v-6.85
				l-5.95,0.6c-1.64,0.12-2.9,0.47-3.76,1.05c-0.86,0.58-1.29,1.43-1.29,2.55c0,1.16,0.46,2.08,1.38,2.76
				C436.27,410.47,437.69,410.81,439.61,410.81z"/>
			<path d="M474.35,392.24c-2.4,0-4.42,0.78-6.04,2.34c-1.62,1.56-2.43,3.85-2.43,6.85c0,2.97,0.78,5.21,2.34,6.73
				c1.56,1.52,3.58,2.28,6.07,2.28c1.48,0,2.73-0.19,3.76-0.57c1.02-0.38,1.91-0.79,2.67-1.23c0.6,0.36,1.07,0.79,1.41,1.29
				c0.34,0.5,0.51,1.11,0.51,1.83c0,1.36-0.82,2.47-2.46,3.34c-1.64,0.86-3.81,1.29-6.49,1.29c-3.04,0-5.72-0.55-8.02-1.65
				c-2.3-1.1-4.11-2.77-5.41-5.02c-1.3-2.24-1.95-5.01-1.95-8.29c0-3.41,0.69-6.23,2.07-8.47c1.38-2.24,3.22-3.92,5.53-5.02
				c2.3-1.1,4.84-1.65,7.6-1.65c2.64,0,4.77,0.46,6.37,1.38c1.6,0.92,2.4,2.06,2.4,3.43c0,0.6-0.16,1.16-0.48,1.68
				c-0.32,0.52-0.7,0.94-1.14,1.26c-0.8-0.48-1.7-0.9-2.7-1.26C476.96,392.42,475.75,392.24,474.35,392.24z"/>
			<path d="M496.29,403.48h-7.39V376.5c0.32-0.08,0.78-0.18,1.38-0.3c0.6-0.12,1.26-0.18,1.98-0.18c1.4,0,2.42,0.25,3.07,0.75
				c0.64,0.5,0.96,1.39,0.96,2.67V403.48z M488.89,399.7h7.39v15.75c-0.32,0.12-0.78,0.23-1.38,0.33c-0.6,0.1-1.26,0.15-1.98,0.15
				c-1.36,0-2.37-0.25-3.04-0.75s-0.99-1.39-0.99-2.67V399.7z M515.16,403.42h-7.39v-5.41c0-2.04-0.55-3.53-1.65-4.45
				c-1.1-0.92-2.49-1.38-4.18-1.38c-1.36,0-2.61,0.26-3.76,0.78c-1.14,0.52-2.13,1.12-2.97,1.8l-0.42-6.01
				c0.92-0.56,2.1-1.11,3.55-1.65c1.44-0.54,3.06-0.81,4.87-0.81c3.61,0,6.5,0.94,8.68,2.82c2.18,1.88,3.28,4.73,3.28,8.53V403.42z
				 M507.77,399.76h7.39v15.69c-0.32,0.12-0.79,0.23-1.41,0.33c-0.62,0.1-1.27,0.15-1.95,0.15c-1.4,0-2.42-0.25-3.07-0.75
				s-0.96-1.39-0.96-2.67V399.76z"/>
		</g>
	</g>
</g>
</svg>
